ModelForces
version=1
nRows=4
nColumns=155
inDegrees=no

This file contains the forces exerted on a model during a simulation.

A force is a generalized force, meaning that it can be either a force (N) or a torque (Nm).

Units are S.I. units (second, meters, Newtons, ...)
Angles are in degrees.

endheader
time	glut_med1_r	glut_med2_r	glut_med3_r	glut_min1_r	glut_min2_r	glut_min3_r	semimem_r	semiten_r	bifemlh_r	bifemsh_r	sar_r	add_long_r	add_brev_r	add_mag1_r	add_mag2_r	add_mag3_r	tfl_r	pect_r	grac_r	glut_max1_r	glut_max2_r	glut_max3_r	iliacus_r	psoas_r	quad_fem_r	gem_r	peri_r	rect_fem_r	vas_med_r	vas_int_r	vas_lat_r	med_gas_r	lat_gas_r	soleus_r	tib_post_r	flex_dig_r	flex_hal_r	tib_ant_r	per_brev_r	per_long_r	per_tert_r	ext_dig_r	ext_hal_r	glut_med1_l	glut_med2_l	glut_med3_l	glut_min1_l	glut_min2_l	glut_min3_l	semimem_l	semiten_l	bifemlh_l	bifemsh_l	sar_l	add_long_l	add_brev_l	add_mag1_l	add_mag2_l	add_mag3_l	tfl_l	pect_l	grac_l	glut_max1_l	glut_max2_l	glut_max3_l	iliacus_l	psoas_l	quad_fem_l	gem_l	peri_l	rect_fem_l	vas_med_l	vas_int_l	vas_lat_l	med_gas_l	lat_gas_l	soleus_l	tib_post_l	flex_dig_l	flex_hal_l	tib_ant_l	per_brev_l	per_long_l	per_tert_l	ext_dig_l	ext_hal_l	ercspn_r	ercspn_l	intobl_r	intobl_l	extobl_r	extobl_l	femur_lat_meniscii_r.femur_lat_r.force.X	femur_lat_meniscii_r.femur_lat_r.force.Y	femur_lat_meniscii_r.femur_lat_r.force.Z	femur_lat_meniscii_r.femur_lat_r.torque.X	femur_lat_meniscii_r.femur_lat_r.torque.Y	femur_lat_meniscii_r.femur_lat_r.torque.Z	femur_lat_meniscii_r.meniscus_lat_r.force.X	femur_lat_meniscii_r.meniscus_lat_r.force.Y	femur_lat_meniscii_r.meniscus_lat_r.force.Z	femur_lat_meniscii_r.meniscus_lat_r.torque.X	femur_lat_meniscii_r.meniscus_lat_r.torque.Y	femur_lat_meniscii_r.meniscus_lat_r.torque.Z	femur_med_meniscii_r.femur_med_r.force.X	femur_med_meniscii_r.femur_med_r.force.Y	femur_med_meniscii_r.femur_med_r.force.Z	femur_med_meniscii_r.femur_med_r.torque.X	femur_med_meniscii_r.femur_med_r.torque.Y	femur_med_meniscii_r.femur_med_r.torque.Z	femur_med_meniscii_r.meniscus_med_r.force.X	femur_med_meniscii_r.meniscus_med_r.force.Y	femur_med_meniscii_r.meniscus_med_r.force.Z	femur_med_meniscii_r.meniscus_med_r.torque.X	femur_med_meniscii_r.meniscus_med_r.torque.Y	femur_med_meniscii_r.meniscus_med_r.torque.Z	femur_med_tibia_r.tibia_upper_r.force.X	femur_med_tibia_r.tibia_upper_r.force.Y	femur_med_tibia_r.tibia_upper_r.force.Z	femur_med_tibia_r.tibia_upper_r.torque.X	femur_med_tibia_r.tibia_upper_r.torque.Y	femur_med_tibia_r.tibia_upper_r.torque.Z	femur_med_tibia_r.femur_med_r.force.X	femur_med_tibia_r.femur_med_r.force.Y	femur_med_tibia_r.femur_med_r.force.Z	femur_med_tibia_r.femur_med_r.torque.X	femur_med_tibia_r.femur_med_r.torque.Y	femur_med_tibia_r.femur_med_r.torque.Z	femur_lat_tibia_r.tibia_upper_r.force.X	femur_lat_tibia_r.tibia_upper_r.force.Y	femur_lat_tibia_r.tibia_upper_r.force.Z	femur_lat_tibia_r.tibia_upper_r.torque.X	femur_lat_tibia_r.tibia_upper_r.torque.Y	femur_lat_tibia_r.tibia_upper_r.torque.Z	femur_lat_tibia_r.femur_lat_r.force.X	femur_lat_tibia_r.femur_lat_r.force.Y	femur_lat_tibia_r.femur_lat_r.force.Z	femur_lat_tibia_r.femur_lat_r.torque.X	femur_lat_tibia_r.femur_lat_r.torque.Y	femur_lat_tibia_r.femur_lat_r.torque.Z	aACL_R	pACL_R	aPCL_R	pPCL_R	aMCL_R	mMCL_R	pMCL_R	aLCL_R	mLCL_R	pLCL_R	aPCL_L	pPCL_L	aMCL_L	aLCL_L
      0.10412077	      3.32679860	     11.65156879	     12.56250527	      5.31215846	      6.08248959	      6.72381914	    117.91386534	    171.19982777	    235.36157552	    370.58267343	    125.69087404	     11.64247988	      8.22067639	      0.00000000	      4.91374569	      8.75784883	      5.05025792	      0.00000000	    100.33444761	      7.53124792	     11.47591805	      8.66381025	     33.69796712	     25.54018392	      7.11426136	      4.66987292	      3.24317036	     39.50560441	      0.00000000	      0.00000000	      0.00000000	     17.37201335	      1.33069887	      0.00000000	      2.23288161	      3.70433650	      0.84648800	     31.02765644	      2.00907488	      3.99033344	      8.74682540	     17.59861591	      5.54392456	      3.32679860	     11.65156879	     12.56250527	      5.31215846	      6.08248959	      6.72381914	      0.00000000	      8.79720256	     14.92973156	     14.64423096	      3.02652713	     11.64247988	      8.22067639	      0.00000000	      4.91374569	      8.75784883	      7.00907039	      0.00000000	      3.14149935	      7.53124792	     11.47591805	      8.66381025	     33.69796712	     25.54018392	      7.11426136	      4.66987292	      3.24317036	     24.08978568	      0.00000000	      0.00000000	      0.00000000	     14.63517176	      7.82801773	     57.73842314	     58.17162280	      8.33082684	      7.75290649	     16.91578573	      9.63763225	     21.97215196	      3.94075768	     11.08080616	      3.74061751	     50.03644325	     50.03644325	     19.03716847	     19.03716847	     35.92738416	     35.92738416	     71.19954006	    304.41713102	     42.42932621	    -24.81338757	      1.85144625	     28.30185896	    -71.19954006	   -304.41713102	    -42.42932621	      9.31406092	     -2.41399766	      1.74328504	    -38.51050939	     68.52787291	      4.23481246	     -0.07270622	      0.93337765	    -15.77693324	     38.51050939	    -68.52787291	     -4.23481246	     -1.38411199	     -0.88171709	      1.69295674	    -73.85580439	   -472.69939904	    105.10205681	    -11.11528339	      1.89335882	      0.74504977	     73.85580439	    472.69939904	   -105.10205681	     52.40808339	     -1.09122372	     31.87925693	    -40.48042998	   -157.22478883	    -38.38108094	      5.36593170	     -1.40523705	      0.09521701	     40.48042998	    157.22478883	     38.38108094	    -19.66566691	      0.95290440	     16.83961961	      8.68080358	    -11.24219331	      0.00000000	     51.54551093	      0.00000000	      0.00000000	    -40.65143353	      0.00000000	      0.00000000	      0.00000000	      0.00000000	      0.00000000	      0.00000001	      0.00000000
      0.10489189	      4.78979323	     11.59025231	     12.49725654	      5.28501063	      6.05254043	      6.69742263	    117.58258720	    170.66146521	    234.11229857	    369.53387459	    125.82513980	     11.58011829	      8.17903893	      0.00000000	      4.90402119	      8.71066143	      5.04625665	      0.00000000	    100.53843312	      7.49197979	     11.41472778	      8.61700739	     33.58227397	     25.40850601	      7.11202069	      4.65100152	      3.43300555	     39.38603886	      0.00000000	      0.00000000	      0.00000000	     18.31963721	      1.22347778	      0.00000000	      1.65307896	      3.38574018	      0.63697459	     30.88730768	      2.15717007	      4.00849628	      9.08790155	     17.52932875	      5.51913761	      4.78979323	     11.59025231	     12.49725654	      5.28501063	      6.05254043	      6.69742263	      0.00000000	      8.74836928	     14.93087767	     14.56777711	      3.01112909	     11.58011829	      8.17903893	      0.00000000	      4.90402119	      8.71066143	      6.98148952	      0.00000000	      3.12525315	      7.49197979	     11.41472778	      8.61700739	     33.58227397	     25.40850601	      7.11202069	      4.65100152	      3.43300555	     23.97731344	      0.00000000	      0.00000000	      0.00000000	     14.97528038	      7.95353595	     57.82889360	     58.09396983	      8.24378628	      7.66042657	     16.90268441	      9.60726234	     21.94240772	      3.92075391	     11.18720852	      3.78075162	     49.78020525	     49.78020525	     18.93324730	     18.93324730	     35.83146153	     35.83146153	     71.97940912	    297.84765700	     42.04790227	    -24.48157002	      1.88010469	     28.63219991	    -71.97940912	   -297.84765700	    -42.04790227	      9.10269798	     -2.44309101	      1.68194673	    -36.71724656	     67.96137768	      5.13100780	     -0.46206644	      0.88674970	    -15.03166171	     36.71724656	    -67.96137768	     -5.13100780	     -1.34092920	     -0.84945055	      1.63547530	    -79.48471348	   -483.32527742	    107.65223452	    -11.38287794	      2.01457202	      0.67254916	     79.48471348	    483.32527742	   -107.65223452	     53.65872851	     -1.18767671	     34.25420635	    -39.20618536	   -146.71321151	    -36.31742169	      5.02248890	     -1.35844304	      0.06314436	     39.20618536	    146.71321151	     36.31742169	    -18.56297882	      0.92567923	     16.30264094	      9.21395030	    -10.71295497	      0.00000000	     52.19553049	      0.00000000	      0.00000000	    -39.34193063	      0.00000000	      0.00000000	      0.00000000	      0.00000000	      0.00000000	      0.00000001	      0.00000000
      0.10566300	      5.97314815	     11.52953420	     12.43250229	      5.25814871	      6.02291005	      6.67066678	    117.29162717	    170.27455032	    232.85690806	    368.67054209	    125.99040976	     11.51842119	      8.13783852	      0.00000000	      4.89309863	      8.66384670	      5.04550649	      0.00000000	    100.68544600	      7.45303327	     11.35417315	      8.57069982	     33.46783864	     25.27825050	      7.10497915	      4.63231684	      3.61130432	     39.25516870	      0.00000000	      0.00000000	      0.00000000	     19.40199694	      1.13963526	      0.00000000	      1.05784255	      3.06762759	      0.43882438	     30.68512858	      2.32853846	      4.05402467	      8.43271778	     17.46135684	      5.49467766	      5.97314815	     11.52953420	     12.43250229	      5.25814871	      6.02291005	      6.67066678	      0.00000000	      8.70005599	     14.92963373	     14.49213437	      2.99589296	     11.51842119	      8.13783852	      0.00000000	      4.89309863	      8.66384670	      6.95408165	      0.00000000	      3.10917872	      7.45303327	     11.35417315	      8.57069982	     33.46783864	     25.27825050	      7.10497915	      4.63231684	      3.61130432	     23.86489839	      0.00000000	      0.00000000	      0.00000000	     15.30087561	      8.07377210	     57.90689479	     58.01498449	      8.15812882	      7.56923977	     16.88729069	      9.57640177	     21.91166746	      3.90094918	     11.28932556	      3.81822166	     49.52666764	     49.52666764	     18.83042998	     18.83042998	     35.73659054	     35.73659054	     69.25801349	    294.48032981	     43.93844330	    -25.19191813	      1.81318854	     27.47961575	    -69.25801349	   -294.48032981	    -43.93844330	      9.07253005	     -2.39013601	      1.79535127	    -35.32848647	     68.04563457	      6.05695989	     -0.84671670	      0.85345916	    -14.45405005	     35.32848647	    -68.04563457	     -6.05695989	     -1.31235042	     -0.82999116	      1.59719285	    -83.51447537	   -489.38427656	    108.27814193	    -11.50753720	      2.09758783	      0.63583472	     83.51447537	    489.38427656	   -108.27814193	     54.01967407	     -1.25923102	     35.94271548	    -36.73980540	   -137.12488376	    -34.17030149	      4.69553345	     -1.28042064	      0.08662852	     36.73980540	    137.12488376	     34.17030149	    -17.44225786	      0.87103405	     15.26147322	      9.09268208	    -10.79425519	      0.00000000	     53.71913903	      0.00000000	      0.00000000	    -38.44542790	      0.00000000	      0.00000000	      0.00000000	      0.00000000	      0.00000000	      0.00000001	      0.00000000
      0.10643412	      6.95964549	     11.46941404	     12.36825736	      5.23156955	      5.99359488	      6.64359233	    116.99039344	    169.94780790	    231.46977777	    367.56886147	    126.12297376	     11.45738118	      8.09707035	      0.00000000	      4.88108391	      8.61740810	      5.04638535	      0.00000000	    100.75714580	      7.41441528	     11.29424903	      8.52488247	     33.35464673	     25.14940128	      7.09385640	      4.61381807	      3.77902803	     39.10594001	      0.00000000	      0.00000000	      0.00000000	     20.60437738	      1.07287642	      0.00000000	      0.44772073	      2.75115542	      0.25293959	     30.52990098	      2.52192439	      4.12458261	      9.25531129	     17.39621026	      5.47110104	      6.95964549	     11.46941404	     12.36825736	      5.23156955	      5.99359488	      6.64359233	      0.00000000	      8.65225689	     14.92663396	     14.41729373	      2.98081693	     11.45738118	      8.09707035	      0.00000000	      4.88108391	      8.61740810	      6.92685038	      0.00000000	      3.09327414	      7.41441528	     11.29424903	      8.52488247	     33.35464673	     25.14940128	      7.09385640	      4.61381807	      3.77902803	     23.75258841	      0.00000000	      0.00000000	      0.00000000	     15.61262529	      8.18893345	     57.97291919	     57.93470823	      8.07392719	      7.47947550	     16.86966651	      9.54507650	     21.87994668	      3.88134252	     11.38657130	      3.85274611	     49.27580050	     49.27580050	     18.72870456	     18.72870456	     35.64275899	     35.64275899	     66.44335788	    294.13254790	     45.12135292	    -25.67899847	      1.74003385	     26.27462196	    -66.44335788	   -294.13254790	    -45.12135292	      9.09652370	     -2.32462756	      1.95465891	    -34.62114701	     68.31492315	      7.17821211	     -1.30623490	      0.83358305	    -14.16557413	     34.62114701	    -68.31492315	     -7.17821211	     -1.28316196	     -0.82441860	      1.58946785	    -87.97739006	   -492.31575080	    108.85804537	    -11.58434275	      2.18807038	      0.56241068	     87.97739006	    492.31575080	   -108.85804537	     54.30782228	     -1.33898736	     37.80606408	    -34.44001122	   -126.65707147	    -31.65677911	      4.33246007	     -1.20126023	      0.08981728	     34.44001122	    126.65707147	     31.65677911	    -16.14678050	      0.81864089	     14.29404570	      8.56302272	    -11.22958176	      0.00000000	     55.21969125	      0.00000000	      0.00000000	    -38.26777138	      0.00000000	      0.00000000	      0.00000000	      0.00000000	      0.00000000	      0.00000001	      0.00000000
